# xmcd CD database file
#
# Track frame offsets:
#	150
#	18250
#	38040
#
# Disc length: 747 seconds
#
# Revision: 0
# Processed by: cddbd v1.5PL3 Copyright (c) Steve Scherf et al.
# Submitted via: CDex 1.51
#
DISCID=1702e903
DTITLE=釈由美子 - BUNSIN ラブソング
DYEAR=2000
DGENRE=JPop
TTITLE0=BUNSIN ラブソング
TTITLE1=MIRAI
TTITLE2=BUNSIN ラブソング (Instrumental)
EXTD=YEAR: 2000
EXTT0=
EXTT1=
EXTT2=
PLAYORDER=
